<?xml version="1.0" standalone="no"?>
<!DOCTYPE svg PUBLIC "-//W3C//DTD SVG 20010904//EN"
 "http://www.w3.org/TR/2001/REC-SVG-20010904/DTD/svg10.dtd">
<svg version="1.0" xmlns="http://www.w3.org/2000/svg"
 width="512.000000pt" height="512.000000pt" viewBox="0 0 512.000000 512.000000"
 preserveAspectRatio="xMidYMid meet">

<g transform="translate(0.000000,512.000000) scale(0.100000,-0.100000)"
fill="#000000" stroke="none">
<path d="M2490 5101 c-14 -10 -536 -265 -1160 -566 -624 -301 -1143 -556
-1153 -567 -16 -19 -17 -101 -17 -1408 0 -1307 1 -1389 18 -1408 19 -23 2355
-1152 2383 -1152 27 0 2362 1129 2382 1152 16 19 17 66 17 668 l0 648 34 22
c45 27 94 101 101 154 3 22 5 556 3 1186 l-3 1145 -22 41 c-12 22 -38 55 -58
72 l-36 32 -1232 0 c-1185 -1 -1233 -1 -1257 -19z m2398 -1295 c1 -826 -1
-1132 -9 -1142 -10 -12 -200 -14 -1130 -14 -1003 0 -1119 2 -1133 16 -14 14
-16 130 -16 1133 0 858 3 1120 12 1129 9 9 272 12 1143 10 l1130 -3 3 -1129z
m-2488 854 l0 -219 -92 43 c-239 113 -358 171 -358 177 0 6 428 217 443 218 4
1 7 -98 7 -219z m-310 -238 l305 -148 3 -213 c1 -125 -1 -211 -7 -209 -5 1
-246 118 -535 258 l-527 255 33 15 c18 8 114 54 212 102 99 49 187 88 195 88
9 0 153 -67 321 -148z m-314 -441 l619 -298 3 -358 2 -357 -22 7 c-75 23 -109
14 -126 -34 -16 -44 4 -71 81 -111 l67 -35 0 -83 c0 -87 21 -151 61 -188 19
-17 19 -43 19 -1171 0 -635 -4 -1153 -8 -1151 -5 1 -493 237 -1085 523 l-1077
520 0 1277 c0 703 2 1278 4 1278 2 0 376 -180 832 -400 486 -235 839 -400 856
-400 15 0 37 9 48 20 25 25 26 81 3 103 -10 8 -225 115 -478 237 -807 389
-857 413 -1012 490 l-152 75 367 177 c202 97 370 177 373 177 4 1 285 -133
625 -298z m1634 -1623 c0 -80 3 -95 22 -115 12 -13 32 -23 45 -23 13 0 132 52
264 115 l241 115 414 0 414 0 0 -603 0 -603 -1076 -519 c-592 -286 -1080 -521
-1085 -523 -5 -2 -9 470 -9 1122 l0 1126 385 0 385 0 0 -92z m190 77 c-32 -18
-40 -18 -40 0 0 10 10 15 33 15 l32 -1 -25 -14z"/>
<path d="M3674 4419 l-29 -30 -3 -245 -3 -244 -239 0 -240 0 -30 -27 c-62 -56
-42 -150 37 -172 21 -6 134 -11 256 -11 l217 0 0 -217 c0 -122 5 -235 11 -256
22 -79 116 -99 172 -37 l27 30 0 240 0 239 244 3 245 3 30 29 c25 24 31 38 31
74 0 35 -6 49 -29 73 l-29 29 -246 0 -246 0 0 246 0 246 -29 29 c-24 23 -38
29 -73 29 -36 0 -50 -6 -74 -31z"/>
<path d="M501 2034 c-24 -30 -27 -62 -8 -87 17 -24 687 -347 718 -347 62 0 96
78 53 120 -30 30 -681 340 -714 340 -19 0 -35 -9 -49 -26z"/>
<path d="M520 1697 c-35 -18 -48 -61 -30 -95 20 -35 357 -205 409 -205 63 -2
95 77 49 120 -23 22 -344 179 -382 188 -12 3 -32 -1 -46 -8z"/>
</g>
</svg>
