<?xml version="1.0" standalone="no"?>
<!DOCTYPE svg PUBLIC "-//W3C//DTD SVG 20010904//EN"
 "http://www.w3.org/TR/2001/REC-SVG-20010904/DTD/svg10.dtd">
<svg version="1.0" xmlns="http://www.w3.org/2000/svg"
 width="512.000000pt" height="512.000000pt" viewBox="0 0 512.000000 512.000000"
 preserveAspectRatio="xMidYMid meet">

<g transform="translate(0.000000,512.000000) scale(0.100000,-0.100000)"
fill="#000000" stroke="none">
<path d="M2028 4874 c-271 -136 -505 -255 -521 -266 -15 -11 -36 -37 -47 -58
-19 -38 -20 -61 -20 -630 0 -650 -1 -635 61 -683 19 -14 256 -136 527 -271
394 -197 501 -246 532 -246 32 0 141 51 549 255 437 218 514 260 538 291 l28
37 3 604 c2 577 2 604 -17 640 -10 21 -27 45 -37 55 -11 9 -245 129 -522 267
-401 200 -511 251 -542 251 -31 0 -139 -50 -532 -246z m827 -241 c162 -82 295
-150 295 -153 0 -3 -133 -71 -295 -153 l-295 -147 -295 147 c-162 82 -295 150
-295 153 0 4 574 296 587 299 2 1 136 -65 298 -146z m-455 -1113 l0 -380 -320
160 -320 160 0 380 0 380 320 -160 320 -160 0 -380z m960 320 l0 -380 -320
-160 -320 -160 0 380 0 380 318 159 c174 88 318 160 320 160 1 1 2 -170 2
-379z"/>
<path d="M4507 2414 c-124 -30 -158 -55 -392 -285 -223 -219 -273 -260 -367
-304 -79 -37 -80 -36 -72 48 21 237 -130 451 -361 512 -90 23 -1719 23 -1833
-1 -161 -33 -308 -116 -416 -236 -76 -83 -1020 -1635 -1047 -1721 -23 -73 -24
-123 -2 -201 14 -51 27 -71 78 -123 53 -52 71 -64 131 -82 68 -21 83 -21 750
-19 l681 3 34 26 c19 15 95 118 174 237 l140 211 810 3 810 3 70 24 c255 86
527 283 886 641 257 256 449 478 489 562 90 191 53 394 -101 553 -82 84 -159
130 -256 150 -83 18 -130 18 -206 -1z m184 -330 c41 -20 97 -90 105 -128 15
-84 -10 -123 -273 -409 -278 -302 -611 -585 -802 -682 -128 -64 -54 -60 -998
-65 -848 -5 -862 -5 -890 -25 -15 -12 -93 -118 -173 -238 l-145 -216 -592 -1
c-325 0 -594 3 -597 8 -2 4 208 358 468 787 505 835 520 857 632 913 107 54
103 53 1001 50 822 -3 832 -3 859 -24 95 -70 98 -192 6 -262 l-35 -27 -458 -5
c-442 -5 -458 -6 -485 -26 -44 -32 -66 -68 -71 -116 -7 -58 15 -108 63 -144
l37 -29 581 -3 c380 -2 610 1 665 8 147 19 326 88 450 173 25 17 145 129 267
248 153 151 229 220 250 224 16 4 34 8 39 10 16 4 68 -7 96 -21z"/>
</g>
</svg>
