<?xml version="1.0" standalone="no"?>
<!DOCTYPE svg PUBLIC "-//W3C//DTD SVG 20010904//EN"
 "http://www.w3.org/TR/2001/REC-SVG-20010904/DTD/svg10.dtd">
<svg version="1.0" xmlns="http://www.w3.org/2000/svg"
 width="512.000000pt" height="512.000000pt" viewBox="0 0 512.000000 512.000000"
 preserveAspectRatio="xMidYMid meet">

<g transform="translate(0.000000,512.000000) scale(0.100000,-0.100000)"
fill="#000000" stroke="none">
<path d="M910 4674 c-177 -47 -335 -175 -415 -339 -70 -141 -66 -20 -63 -1801
l3 -1609 26 -67 c74 -190 207 -323 397 -397 l67 -26 1625 0 1625 0 70 22 c188
60 337 204 414 401 l26 67 0 1635 0 1635 -26 67 c-74 191 -206 323 -397 397
l-67 26 -1615 2 c-1384 2 -1623 0 -1670 -13z m3198 -416 c64 -16 134 -86 150
-150 17 -67 17 -3029 0 -3096 -16 -64 -86 -134 -150 -150 -67 -17 -3029 -17
-3096 0 -64 16 -134 86 -150 150 -9 35 -12 432 -12 1551 0 1695 -6 1574 76
1645 24 22 61 45 82 50 57 15 3040 15 3100 0z"/>
<path d="M1422 3829 c-19 -6 -53 -30 -77 -53 -70 -70 -83 -155 -39 -245 67
-134 244 -158 342 -45 146 165 -11 404 -226 343z"/>
<path d="M2251 3814 c-90 -45 -134 -140 -110 -238 17 -72 86 -140 160 -156 39
-8 237 -10 719 -8 l665 3 47 28 c84 49 124 149 97 244 -16 59 -78 124 -135
141 -31 9 -211 12 -716 12 l-674 0 -53 -26z"/>
<path d="M1405 2753 c-165 -87 -166 -300 -1 -385 59 -30 151 -22 208 18 138
96 118 305 -34 369 -48 19 -134 19 -173 -2z"/>
<path d="M2260 2754 c-167 -72 -165 -318 2 -389 33 -13 127 -15 725 -15 648 0
690 2 728 19 164 76 166 298 3 382 -36 18 -67 19 -730 19 -596 -1 -698 -3
-728 -16z"/>
<path d="M1442 1700 c-57 -13 -108 -55 -136 -111 -44 -89 -31 -175 37 -243 70
-70 157 -84 246 -40 127 64 155 219 59 328 -29 34 -53 50 -91 61 -55 16 -66
17 -115 5z"/>
<path d="M2288 1698 c-21 -5 -58 -28 -82 -50 -113 -98 -89 -275 45 -342 l53
-26 674 0 c505 0 685 3 716 12 57 17 119 82 135 141 27 95 -13 195 -97 244
l-47 28 -680 2 c-429 1 -694 -2 -717 -9z"/>
</g>
</svg>
